# xmcd
#
# Track frame offsets:
#	150
#	13655
#	25070
#	37225
#	50212
#	63408
#	77961
#	90215
#	105991
#	120833
#	136335
#	153484
#	165670
#	179248
#	192011
#	203074
#	214565
#	234033
#	248327
#	263251
#	275629
#	289877
#	301570
#	312533
#
# Disc length: 4335 seconds
#
# Revision: 1
# Processed by: cddbd v1.5.2PL0 Copyright (c) Steve Scherf et al.
# Submitted via: audiograbber 1.83.01
#
DISCID=3b10ed18
DTITLE=Judith Moreno - Arrancame la vida
DYEAR=2004
DGENRE=Bolero
TTITLE0=Arrancame la vida
TTITLE1=Sin fe
TTITLE2=Todo me gusta de ti
TTITLE3=Condicion
TTITLE4=Contigo
TTITLE5=Motivos
TTITLE6=Tu mi delirio
TTITLE7=Para toda la vida
TTITLE8=Destellos
TTITLE9=Amar y vivir
TTITLE10=Ud.
TTITLE11=Cuando vuelva a tu lado
TTITLE12=Tu me acostumbraste
TTITLE13=Total
TTITLE14=Nuestro amor
TTITLE15=Donde tu iras
TTITLE16=Si quieres
TTITLE17=Amor que malo eres
TTITLE18=Mucho Corazon
TTITLE19=Corazonada
TTITLE20=Para que recordar
TTITLE21=Sabor a mi
TTITLE22=Negrura
TTITLE23=Aunque me cueste la vida
EXTD=
EXTT0=
EXTT1=
EXTT2=
EXTT3=
EXTT4=
EXTT5=
EXTT6=
EXTT7=
EXTT8=
EXTT9=
EXTT10=
EXTT11=
EXTT12=
EXTT13=
EXTT14=
EXTT15=
EXTT16=
EXTT17=
EXTT18=
EXTT19=
EXTT20=
EXTT21=
EXTT22=
EXTT23=
PLAYORDER=
